<svg fill="#00C5ED" xmlns="http://www.w3.org/2000/svg" xmlns:xlink="http://www.w3.org/1999/xlink" version="1.1" x="0px" y="0px" viewBox="0 0 100 100" style="enable-background:new 0 0 100 100;" xml:space="preserve"><style type="text/css">
	.st0{fill:#00C5ED;}
	.st1{fill:none;stroke:#00C5ED;stroke-linecap:round;stroke-linejoin:round;stroke-miterlimit:10;}
	.st2{fill:none;stroke:#00C5ED;stroke-width:2;stroke-linecap:round;stroke-linejoin:round;stroke-miterlimit:10;}
</style><g><path d="M50,98c26.5,0,48-21.5,48-48S76.5,2,50,2S2,23.5,2,50S23.5,98,50,98z M23.2,61.7L49,36.1c0.3-0.3,0.7-0.4,1-0.4   s0.8,0.1,1.1,0.4l25.7,25.8c0.6,0.6,0.6,1.5,0,2.1c-0.6,0.6-1.5,0.6-2.1,0L50,39.2L25.3,63.8c-0.6,0.6-1.5,0.6-2.1,0   C22.6,63.3,22.6,62.3,23.2,61.7z"></path></g></svg>
