<svg fill="#FFFFFF" xmlns="http://www.w3.org/2000/svg" xmlns:xlink="http://www.w3.org/1999/xlink" version="1.1" x="0px" y="0px" viewBox="0 0 100 100" style="enable-background:new 0 0 100 100;" xml:space="preserve"><path d="M49.9,1.2C23.2,1.2,1.4,22.9,1.4,49.7c0,26.8,21.7,48.5,48.5,48.5s48.5-21.7,48.5-48.5C98.5,22.9,76.7,1.2,49.9,1.2z   M78.7,44.5L52.7,70.6c-0.5,0.5-1.2,0.8-1.9,0.8c0,0,0,0-0.1,0c0,0,0,0-0.1,0c-0.7,0-1.4-0.3-1.9-0.8L22.6,44.5  c-1.1-1.1-1.1-2.8,0-3.8c1.1-1.1,2.8-1.1,3.8,0l24.2,24.2l24.2-24.2c1.1-1.1,2.8-1.1,3.8,0C79.8,41.7,79.8,43.4,78.7,44.5z"></path></svg>