<svg fill="#F9FBFC" xmlns:dc="http://purl.org/dc/elements/1.1/" xmlns:cc="http://creativecommons.org/ns#" xmlns:rdf="http://www.w3.org/1999/02/22-rdf-syntax-ns#" xmlns:svg="http://www.w3.org/2000/svg" xmlns="http://www.w3.org/2000/svg" xmlns:sodipodi="http://sodipodi.sourceforge.net/DTD/sodipodi-0.dtd" xmlns:inkscape="http://www.inkscape.org/namespaces/inkscape" version="1.1" x="0px" y="0px" viewBox="0 0 100 100"><g transform="translate(0,-952.36218)"><path d="m 9.0000025,967.36218 c -1.108,0 -2,0.892 -2,2 l 0,16 85.9999955,0 0,-16 c 0,-1.108 -0.892,-2 -2,-2 l -81.9999955,0 z m 17.9999995,3 c 3.290001,0 6,2.71 6,6 0,3.29 -2.709999,6 -6,6 -3.29,0 -6,-2.71 -6,-6 0,-3.29 2.71,-6 6,-6 z m 45.999996,0 c 3.289999,0 6,2.71 6,6 0,3.29 -2.710001,6 -6,6 -3.29,0 -6,-2.71 -6,-6 0,-3.29 2.71,-6 6,-6 z m -45.999996,4 c -1.128299,0 -2,0.8718 -2,2 0,1.1283 0.8718,2 2,2 1.1283,0 2,-0.8717 2,-2 0,-1.1282 -0.8717,-2 -2,-2 z m 45.999996,0 c -1.1283,0 -2,0.8718 -2,2 0,1.1283 0.8718,2 2,2 1.1283,0 2,-0.8717 2,-2 0,-1.1282 -0.8717,-2 -2,-2 z m -65.9999955,15 0,46.00002 c 0,1.108 0.892,2 2,2 l 67.9999955,0 0,-12 c 0,-2.1814 1.8186,-4 4,-4 l 12,0 0,-32.00002 -85.9999955,0 z m 12.9999995,8 12,0 0,14.00002 -12,0 0,-14.00002 z m 16,0 11.999995,0 0,14.00002 -11.999995,0 0,-14.00002 z m 15.999995,0 12,0 0,14.00002 -12,0 0,-14.00002 z m 16.000001,0 12,0 0,14.00002 -12,0 0,-14.00002 z m -47.999996,18.00002 12,0 0,14 -12,0 0,-14 z m 16,0 11.999995,0 0,14 -11.999995,0 0,-14 z m 15.999995,0 12,0 0,14 -12,0 0,-14 z m 29.000001,10 0,10 10,-10 -10,0 z" style="color:#000000;enable-background:accumulate;" fill="#F9FBFC" stroke="none" marker="none" visibility="visible" display="inline" overflow="visible"></path></g></svg>