<svg fill="#ffffff" xmlns="http://www.w3.org/2000/svg" xmlns:xlink="http://www.w3.org/1999/xlink" version="1.1" x="0px" y="0px" viewBox="0 0 100 100" enable-background="new 0 0 100 100" xml:space="preserve"><g><path d="M84.833,29.308c-4.4-2.334-9.858-0.659-12.192,3.742c-0.98,1.847-1.244,3.88-0.906,5.79l-14.347,4.402   c-1.872-3.646-5.662-6.146-10.042-6.146c-0.706,0-1.395,0.073-2.065,0.197l-4.702-11.527c0.871-0.591,1.588-1.429,2.026-2.47   c1.206-2.866-0.141-6.167-3.007-7.372c-2.866-1.206-6.167,0.141-7.372,3.007c-1.206,2.866,0.14,6.167,3.007,7.373   c1.072,0.451,2.204,0.544,3.265,0.336l4.605,11.29c-4.131,1.678-7.046,5.725-7.046,10.459c0,0.574,0.057,1.134,0.139,1.686   l-12.835,2.914c-0.817-2.005-2.581-3.583-4.859-4.066c-3.652-0.775-7.24,1.557-8.015,5.209c-0.775,3.652,1.557,7.24,5.209,8.015   c3.652,0.775,7.24-1.557,8.015-5.209c0.125-0.587,0.161-1.17,0.132-1.742l12.91-2.932c1.571,4.292,5.66,7.365,10.486,7.411   l0.744,8.176c-2.326,0.692-4.023,2.844-4.023,5.395c0,3.109,2.521,5.63,5.631,5.63c3.109,0,5.63-2.52,5.63-5.63   c0-2.892-2.181-5.272-4.987-5.591l-0.744-8.182c1.873-0.36,3.583-1.179,5.003-2.341l18.622,18.621   c-0.604,0.897-0.956,1.977-0.956,3.139c0,3.109,2.52,5.63,5.63,5.63c3.11,0,5.631-2.52,5.631-5.63s-2.521-5.63-5.631-5.63   c-1.13,0-2.181,0.336-3.063,0.91L56.086,55.531c1.593-1.947,2.55-4.433,2.55-7.144c0-1.053-0.155-2.069-0.425-3.036l14.192-4.355   c0.794,1.754,2.146,3.272,3.979,4.244c4.399,2.333,9.857,0.658,12.191-3.741C90.907,37.099,89.232,31.641,84.833,29.308z    M38.182,19.909c-0.422,1.003-1.578,1.474-2.581,1.052c-1.003-0.422-1.474-1.577-1.052-2.58c0.422-1.004,1.577-1.475,2.58-1.053   C38.132,17.75,38.604,18.906,38.182,19.909z M18.103,53.699c-0.271,1.278-1.527,2.095-2.806,1.823   c-1.278-0.271-2.094-1.527-1.823-2.806c0.271-1.278,1.527-2.094,2.805-1.823C17.558,51.165,18.374,52.421,18.103,53.699z    M42.801,48.579c-2.183,0-3.953-1.769-3.953-3.952c0-2.183,1.77-3.952,3.953-3.952s3.952,1.77,3.952,3.952   C46.753,46.81,44.984,48.579,42.801,48.579z M49.985,71.68c0,1.088-0.882,1.97-1.97,1.97s-1.97-0.882-1.97-1.97   c0-1.089,0.882-1.971,1.97-1.971S49.985,70.591,49.985,71.68z M75.431,75.354c1.088,0,1.971,0.882,1.971,1.971   c0,1.088-0.883,1.97-1.971,1.97c-1.088,0-1.97-0.882-1.97-1.97C73.461,76.237,74.343,75.354,75.431,75.354z M81.117,34.816   c-0.817,1.54-2.727,2.125-4.267,1.309c-1.54-0.817-2.126-2.727-1.31-4.267c0.817-1.54,2.728-2.126,4.268-1.31   C81.347,31.365,81.934,33.276,81.117,34.816z"></path></g></svg>
