<svg fill="#FFFFFF" xmlns:dc="http://purl.org/dc/elements/1.1/" xmlns:cc="http://creativecommons.org/ns#" xmlns:rdf="http://www.w3.org/1999/02/22-rdf-syntax-ns#" xmlns:svg="http://www.w3.org/2000/svg" xmlns="http://www.w3.org/2000/svg" xmlns:sodipodi="http://sodipodi.sourceforge.net/DTD/sodipodi-0.dtd" xmlns:inkscape="http://www.inkscape.org/namespaces/inkscape" version="1.1" x="0px" y="0px" viewBox="0 0 100 100"><g transform="translate(0,-952.36218)"><path style="color:#000000;enable-background:accumulate;" d="m 50,960.36218 c -3.7395,0 -6.8649,2.544 -7.75,6 l -8.25,0 0,10 32,0 0,-10 -8.25,0 c -0.8851,-3.456 -4.0105,-6 -7.75,-6 z m -32,10 0,74.00002 64,0 0,-74.00002 -14,0 0,8 -36,0 0,-8 -14,0 z m 32,28.0625 c 8.8332,0 16.4546,4.50012 20,11.00002 -3.5432,6.5049 -11.1627,11 -20,11 -8.8374,0 -16.4567,-4.4951 -20,-11 3.5455,-6.4999 11.1669,-11.00002 20,-11.00002 z m 0,2.00002 c -4.9706,0 -9,4.0295 -9,9 0,4.9705 4.0294,9 9,9 4.9706,0 9,-4.0295 9,-9 0,-4.9705 -4.0294,-9 -9,-9 z" fill="#FFFFFF" stroke="none" marker="none" visibility="visible" display="inline" overflow="visible"></path></g></svg>