<svg fill="#FFFFFF" xmlns="http://www.w3.org/2000/svg" xmlns:xlink="http://www.w3.org/1999/xlink" version="1.1" x="0px" y="0px" viewBox="0 0 100 100" style="enable-background:new 0 0 100 100;" xml:space="preserve"><g><path d="M38,21.1v-5.5c0-1.7,1.3-3,3-3h18c1.7,0,3,1.3,3,3v5.5h4v-5.5c0-3.9-3.1-7-7-7H41c-3.9,0-7,3.1-7,7v5.5H38z"></path><path d="M34,25.1H9v34.3h31.4V59c0-3.9,3.1-7,7-7h5.2c3.9,0,7,3.1,7,7v0.4H91V25.1H66H34z"></path><path d="M59.6,64.2c0,3.9-3.1,7-7,7h-5.2c-3.9,0-7-3.1-7-7v-0.6H13.4v27.8h73.1V63.6H59.6V64.2z"></path><path d="M52.6,56h-5.2c-1.7,0-3,1.3-3,3v5.2c0,1.7,1.3,3,3,3h5.2c1.7,0,3-1.3,3-3V59C55.6,57.3,54.3,56,52.6,56z"></path></g></svg>