<svg fill="#6D6F70" xmlns="http://www.w3.org/2000/svg" xmlns:xlink="http://www.w3.org/1999/xlink" version="1.1" x="0px" y="0px" viewBox="0 0 5 5" enable-background="new 0 0 5 5" xml:space="preserve"><g><g><path fill="#6D6F70" d="M3.059,2.814L2.878,2.369L2.534,3.308L2.269,2.217L2.072,2.88L1.829,2.346L1.595,2.582H1.067    c0.46,0.588,1.291,1.349,1.424,1.466v0.017c0,0,0.002-0.003,0.009-0.007c0.006,0.004,0.006,0.007,0.006,0.007V4.048    C2.643,3.929,3.508,3.14,3.966,2.54H3.178L3.059,2.814z"></path></g><g><path fill="#6D6F70" d="M1.873,2.101L2.044,2.47l0.239-0.805L2.56,2.814l0.309-0.843l0.192,0.473l0.021-0.047h0.986    C4.151,2.275,4.21,2.166,4.231,2.079c0.188-0.735-0.4-1.143-0.896-1.143c-0.382,0-0.707,0.232-0.835,0.56    c-0.129-0.327-0.456-0.56-0.837-0.56c-0.495,0-1.084,0.407-0.896,1.143C0.794,2.175,0.86,2.297,0.959,2.435h0.575L1.873,2.101z"></path></g></g></svg>