<svg fill="#FFFFFF" xmlns:dc="http://purl.org/dc/elements/1.1/" xmlns:cc="http://creativecommons.org/ns#" xmlns:rdf="http://www.w3.org/1999/02/22-rdf-syntax-ns#" xmlns:svg="http://www.w3.org/2000/svg" xmlns="http://www.w3.org/2000/svg" xmlns:sodipodi="http://sodipodi.sourceforge.net/DTD/sodipodi-0.dtd" xmlns:inkscape="http://www.inkscape.org/namespaces/inkscape" version="1.1" x="0px" y="0px" viewBox="0 0 100 100"><g transform="translate(0,-952.36218)"><path style="opacity:1;color:#000000;fill:#FFFFFF;stroke:none;stroke-width:4;stroke-linecap:round;stroke-linejoin:round;stroke-miterlimit:4;stroke-opacity:1;stroke-dasharray:none;stroke-dashoffset:0;marker:none;visibility:visible;display:inline;overflow:visible;enable-background:accumulate" d="M 19 8 L 19 92 L 81 92 L 81 28 L 63 28 A 2.0002 2.0002 0 0 1 61 26 L 61 8 L 19 8 z M 65 8 L 65 24 L 81 24 L 65 8 z M 39 18 C 41.761424 18 44 20.2386 44 23 C 44 25.7614 41.761424 28 39 28 C 36.238576 28 34 25.7614 34 23 C 34 20.2386 36.238576 18 39 18 z M 39 32 C 45.075079 32 50 36.4772 50 42 L 28 42 C 28 36.4772 32.924922 32 39 32 z M 27.71875 51 A 2.0021961 2.0021961 0 0 1 27.8125 51 A 2.0002 2.0002 0 0 1 28 51 L 72 51 A 2.0002 2.0002 0 1 1 72 55 L 28 55 A 2.0021961 2.0021961 0 0 1 27.71875 51 z M 27.71875 62 A 2.0021961 2.0021961 0 0 1 27.8125 62 A 2.0002 2.0002 0 0 1 28 62 L 72 62 A 2.0002 2.0002 0 1 1 72 66 L 28 66 A 2.0021961 2.0021961 0 0 1 27.71875 62 z M 27.71875 73 A 2.0021961 2.0021961 0 0 1 27.8125 73 A 2.0002 2.0002 0 0 1 28 73 L 72 73 A 2.0002 2.0002 0 1 1 72 77 L 28 77 A 2.0021961 2.0021961 0 0 1 27.71875 73 z " transform="translate(0,952.36218)"></path></g></svg>