<svg fill="#262B2D" xmlns="http://www.w3.org/2000/svg" xmlns:xlink="http://www.w3.org/1999/xlink" xml:space="preserve" version="1.1" style="shape-rendering:geometricPrecision;text-rendering:geometricPrecision;image-rendering:optimizeQuality;" viewBox="0 0 1407 1563" x="0px" y="0px" fill-rule="evenodd" clip-rule="evenodd"><defs><style type="text/css">
   
    .fil0 {fill:#262B2D}
   
  </style></defs><g><path class="fil0" d="M1407 533l0 976c0,30 -24,54 -53,54l-1300 0c-30,0 -54,-24 -54,-54l0 -976c0,-24 20,-56 39,-70l611 -447c32,-23 75,-21 104,3l116 86 -424 377 210 0 -100 380 503 -447 -210 0 71 -273 452 333c20,14 35,31 35,58zm-807 439l-428 -233 0 652 1063 0 0 -659 -476 242c-48,25 -108,26 -159,-2z"></path></g></svg>