<svg fill="#FFFFFF" xmlns="http://www.w3.org/2000/svg" xmlns:xlink="http://www.w3.org/1999/xlink" version="1.1" x="0px" y="0px" viewBox="0 0 20 20" enable-background="new 0 0 20 20" xml:space="preserve"><g><path fill="#FFFFFF" d="M20,9c0-2.8-2.2-5-5-5V0H0v18h12v2l3-2.3l3,2.3v-7C19.2,12.1,20,10.6,20,9z M2,16V2h11v2.4   c-1.5,0.6-2.6,2-2.9,3.6H4v2h6.1c0.2,1.2,0.9,2.3,1.9,3v3H2z M16,16l-1-0.8L14,16v-2.1c0.3,0.1,0.7,0.1,1,0.1c0.3,0,0.7,0,1-0.1V16   z M15,12c-1.7,0-3-1.3-3-3s1.3-3,3-3s3,1.3,3,3S16.7,12,15,12z"></path><rect x="4" y="4" fill="#FFFFFF" width="7" height="2"></rect><rect x="4" y="12" fill="#FFFFFF" width="7" height="2"></rect></g></svg>