<svg fill="#262B2D" xmlns="http://www.w3.org/2000/svg" xmlns:xlink="http://www.w3.org/1999/xlink" version="1.1" x="0px" y="0px" viewBox="0 0 100 100" style="enable-background:new 0 0 100 100;" xml:space="preserve"><style type="text/css">
	.st0{display:none;}
	.st1{display:inline;}
</style><g class="st0"><g class="st1"><path d="M50,0.5C22.7,0.5,0.5,22.7,0.5,50c0,27.3,22.2,49.5,49.5,49.5c27.3,0,49.5-22.2,49.5-49.5C99.5,22.7,77.3,0.5,50,0.5z     M50,78.1c-15.5,0-28.1-12.6-28.1-28.1S34.5,21.9,50,21.9S78.1,34.5,78.1,50S65.5,78.1,50,78.1z"></path></g><g class="st1"><path d="M99.5,43.2C99.5,20.7,77.3,2.4,50,2.4C22.7,2.4,0.5,20.7,0.5,43.2c0,12.4,6.8,23.5,17.4,31v15c0,4.6,3.8,8.4,8.4,8.4    s8.4-3.8,8.4-8.4c0-1.9,1.6-3.5,3.5-3.5c1.9,0,3.5,1.6,3.5,3.5c0,4.6,3.8,8.4,8.4,8.4s8.4-3.8,8.4-8.4c0-1.9,1.6-3.5,3.5-3.5    c1.9,0,3.5,1.6,3.5,3.5c0,4.6,3.8,8.4,8.4,8.4c4.6,0,8.4-3.8,8.4-8.4V74.1C92.8,66.6,99.5,55.5,99.5,43.2z M50,18.9    c16.3,0,29.5,10.9,29.5,24.3S66.3,67.5,50,67.5S20.5,56.6,20.5,43.2S33.7,18.9,50,18.9z"></path></g><g class="st1"><path d="M44.3,43.4C44.3,43.4,44.3,43.4,44.3,43.4C44.3,43.4,44.4,43.4,44.3,43.4L44.3,43.4z"></path><path d="M44.3,43.4c-10-2.7-19-8-26.2-15.1L17.8,28c-7.6,8-12.2,18.8-12.2,30.6c0,18.4,11.2,34.2,27.1,40.9l-0.1,0    c9-10.3,14.4-23.7,14.4-38.4C47.1,54.9,46.1,49,44.3,43.4z"></path><path d="M55.6,43.4C55.6,43.4,55.7,43.4,55.6,43.4C55.7,43.4,55.7,43.4,55.6,43.4L55.6,43.4z"></path><path d="M82.2,28l-0.3,0.4c-7.1,7.1-16.1,12.4-26.2,15.1c-1.8,5.6-2.7,11.5-2.7,17.7c0,14.7,5.4,28.1,14.4,38.4l-0.1,0    C83.2,92.8,94.4,77,94.4,58.6C94.4,46.7,89.7,35.9,82.2,28z"></path><path d="M73.5,20.9c-3.3-2.1-6.9-3.7-10.8-4.9l8.7-10.9c1-1.2,0.8-3-0.5-4c-1.2-1-3-0.8-4,0.5L56.6,14.7c-2.1-0.3-4.3-0.5-6.6-0.5    c-2.2,0-4.4,0.2-6.6,0.5v0L33.1,1.6c-1-1.2-2.7-1.4-4-0.5c-1.2,1-1.4,2.7-0.5,4L37.3,16c-3.8,1.1-7.5,2.8-10.8,4.9l0,0    c5.2,7.4,13.8,12.2,23.5,12.2C59.7,33.1,68.3,28.3,73.5,20.9z"></path><polygon points="73.5,20.9 73.5,20.9 73.5,20.9   "></polygon></g><g class="st1"><path d="M93.1,3.2c0,0-33.4-4.8-63,11.1l0,0c-14.6,7.1-24.7,22-24.7,39.4c0,11.4,4.4,21.7,11.5,29.5l16.7-17.7l1.1-28.1l4.9,21.7    l8.5-9l0.9-21.7l3.8,16.8l23.8-25.1L56.9,47.3L74.1,48l-21.3,4.8l-7.1,9.8l22.7,0.9l-28,6.3L25.4,90.4c6.9,4.5,15.1,7.1,23.9,7.1    c20,0,36.9-13.5,42.1-31.8l0,0c0-0.2,0.1-0.3,0.1-0.5c0.6-2.3,1.1-4.7,1.4-7.1C96.6,34.1,93.1,3.2,93.1,3.2z"></path></g><g class="st1"><path d="M85.2,81.9c0-0.1,0-0.1,0.1-0.1c8.1-8.6,13-20.2,13-32.9C98.3,22.1,76.7,0.5,50,0.5S1.7,22.1,1.7,48.8    c0,20.5,12.8,38,30.8,45c0,0-0.1,0-0.1,0s27.8,13.9,64.3-1.9C96.8,92,79.4,91.2,85.2,81.9z M33.6,53.6c-6.2,0-11.3-5-11.3-11.3    c0-4.6,2.7-8.4,6.6-10.2c2,6.6,8.1,11.4,15.3,11.4c0.2,0,0.3,0,0.5,0C44.2,49.1,39.4,53.6,33.6,53.6z M62.7,53.6    c-5.8,0-10.6-4.5-11.2-10.2c0.2,0,0.3,0,0.5,0c7.2,0,13.3-4.8,15.3-11.4c3.9,1.8,6.6,5.7,6.6,10.2C73.9,48.5,68.9,53.6,62.7,53.6z    "></path></g><g class="st1"><polygon points="75.2,13.5 48,13.5 23.7,86.5 99.5,86.5   "></polygon><polygon points="17.2,36.3 0.5,86.5 14,86.5 30.7,36.3   "></polygon></g><g class="st1"><polygon points="77,11.7 31.6,11.7 0.5,50.4 0.5,74.9 23,80.2 70.2,47.5   "></polygon><polygon points="34.5,82.8 55.6,88.3 84.3,69.5 73.9,55.9   "></polygon><polygon points="87.2,11.7 79.4,50.1 89.6,65 99.5,58.5   "></polygon></g><g class="st1"><path d="M83,56.3L83,56.3c0-0.1-0.1-0.3-0.1-0.4c-0.2-0.8-0.5-1.6-0.8-2.4C75.3,33.8,50,0.5,50,0.5s-25.3,33.3-32.1,53    c-0.3,0.8-0.5,1.6-0.8,2.4c0,0.1-0.1,0.3-0.1,0.4h0c-0.8,2.9-1.2,5.9-1.2,9c0,18.9,15.3,34.2,34.2,34.2s34.2-15.3,34.2-34.2    C84.2,62.2,83.8,59.2,83,56.3z M67.4,79.5L67.4,79.5c-3.9,5.4-10.2,9-17.4,9c-10.8,0-19.7-8-21.1-18.4c0,0,0,0,0,0l0-0.1    c0,0,0,0,0,0.1c0-2.9,2.3-5.2,5.2-5.2c2.5,0,4.7,1.8,5.1,4.3l0,0c1.1,5.1,5.2,9.4,10.7,10.4c4.8,0.9,9.5-0.8,12.6-4.2c0,0,0,0,0,0    l0,0c0,0,0,0,0,0c0.6-0.5,1.5-0.8,2.4-0.7c1.8,0.2,3.1,1.7,3,3.5C67.8,78.6,67.6,79.1,67.4,79.5z"></path></g><g class="st1"><path d="M35,24.8C16,26.2,0.5,40.2,0.5,59.2S15.9,93.7,35,93.7c12.5,0,23.4-6.6,29.4-16.5c0,0-7.4,2.2-14.8,3    c-2,0.2-3.9-0.9-4.2-2.9c-0.4-2,0.9-3.9,2.9-4.2c0,0,20.4-4.2,29.7-15c0,0-12.3,5.9-27.2,7.1c-2,0.2-3.9-0.9-4.2-2.9    c-0.4-2,0.9-3.9,2.9-4.2c0,0,26.8-4.1,41.6-23.4c0,0-14.7,10.8-39,12.3c-2,0.1-3.9-0.9-4.2-2.9s0.9-3.9,2.9-4.2    c0,0,29.5-3.2,49-33.7C99.5,6.3,78.9,21.5,35,24.8z"></path></g><g class="st1"><path d="M99.5,50L73.8,35.9l4-13.7l-13.7,4L50,0.5L35.9,26.2l-13.7-4l4,13.7L0.5,50l25.7,14.1l-4,13.7l13.7-4L50,99.5l14.1-25.7    l13.7,4l-4-13.7L99.5,50z M54.8,54.8L50,63.6l-4.8-8.8L36.4,50l8.8-4.8l4.8-8.8l4.8,8.8l8.8,4.8L54.8,54.8z"></path></g><g class="st1"><path d="M72,94.8c-5.6,3-12.1,4.7-18.9,4.7c-22.2,0-40.2-18-40.2-40.2c0-6.2,1.4-12,3.9-17.2c0,0,0,10.7,4.8,15.5    c0,0-1.4-5.2,3.8-13.9c5.2-8.7,23.9-17,26-24.3c2.1-7.3,1-15.2-2.3-18.8c0,0,9.8,4.9,10.2,15.9c0.5,11-3.5,22.1,3,25.7    c5,2.7,10.5,0,11-5c0.4-3.6-1.2-9.1-5.3-13.4c0,0,19.1,11.6,19.1,32.1C87.1,82.6,66,89,66,89C76,75.1,68.1,62,68.1,62    c0.2,13.9-11.7,16.8-11.7,16.8c4-2,6.8-6.2,6.8-11c0-6.8-5.5-12.3-12.3-12.3S38.7,61,38.7,67.7c0,2,1.3,5.5,1.3,5.5    c-5.2-2.9-4.2-10.4-4.2-10.4c-0.6,2.2-0.9,4.5-0.9,6.9c0,15.1,12.3,27.4,27.4,27.4c3.4,0,6.6-0.6,9.6-1.7"></path></g><g class="st1"><path d="M22.1,54.9l0-44.1c0-5.2,3.8-9.9,8.9-10.3c4.9-0.4,9.1,2.9,10.2,7.4c1.4-3.5,4.9-6,9-6c5.3,0,9.7,4.3,9.7,9.7    c0,0.4-0.1,0.7-0.1,1.1c1.8-2.6,4.8-4.2,8.2-4.2c5.5,0,10,4.5,10,10c0,0.1,0,0.3,0,0.4c2-2.4,5.1-3.8,8.6-3.2    c4.3,0.8,7.3,4.9,7.3,9.3l0,29.2c0,24.1-18.8,44.7-42.9,45.2C26.3,99.9,6.3,80.2,6.3,55.8H6.2c0-8,3.2-15.3,8.5-20.6    c1.2-1.3,3.4-0.3,3.4,1.4C18.1,41.4,18.7,54.9,22.1,54.9z"></path></g><g class="st1"><path d="M70.6,6H29.4c-3,0-5.7,1.6-7.2,4.1L1.6,45.9c-1.5,2.6-1.5,5.7,0,8.3l20.6,35.7c1.5,2.6,4.2,4.1,7.2,4.1h41.2    c3,0,5.7-1.6,7.2-4.1l20.6-35.7c1.5-2.6,1.5-5.7,0-8.3L77.8,10.2C76.3,7.6,73.6,6,70.6,6z M55,71.1C39.2,74.6,25.4,60.8,28.9,45    c1.8-8,8.2-14.4,16.2-16.2C60.8,25.4,74.6,39.2,71.1,55C69.3,62.9,62.9,69.3,55,71.1z"></path></g><g class="st1"><path d="M1.3,48.6l18.9-11.3c0.5-0.3,1.2-0.3,1.7,0l19.4,11.3c1.1,0.6,1.1,2.2,0,2.9L21.9,62.8c-0.5,0.3-1.2,0.3-1.7,0L1.3,51.5    C0.2,50.8,0.2,49.3,1.3,48.6z"></path><path d="M58.7,48.6l18.9-11.3c0.5-0.3,1.2-0.3,1.7,0l19.4,11.3c1.1,0.6,1.1,2.2,0,2.9L79.3,62.8c-0.5,0.3-1.2,0.3-1.7,0L58.7,51.5    C57.6,50.8,57.6,49.3,58.7,48.6z"></path><path d="M24.4,91.5l-0.4-22c0-0.6,0.3-1.2,0.8-1.5l19.5-11.1c1.1-0.6,2.5,0.2,2.5,1.4L47,80.8c0,0.6-0.3,1.2-0.9,1.5L26.9,92.9    C25.8,93.6,24.5,92.8,24.4,91.5z"></path><path d="M53.1,41.8l-0.4-22c0-0.6,0.3-1.2,0.8-1.5L73.1,7.2c1.1-0.6,2.5,0.2,2.5,1.4l0.1,22.4c0,0.6-0.3,1.2-0.9,1.5L55.6,43.2    C54.5,43.8,53.2,43.1,53.1,41.8z"></path><path d="M73.1,92.8L53.8,82.1c-0.5-0.3-0.9-0.9-0.9-1.5l0.1-22.4c0-1.3,1.4-2.1,2.5-1.4l19.5,11.1c0.5,0.3,0.9,0.9,0.8,1.5    l-0.4,22C75.5,92.6,74.2,93.4,73.1,92.8z"></path><path d="M44.4,43.1L25.1,32.4c-0.5-0.3-0.9-0.9-0.9-1.5l0.1-22.4c0-1.3,1.4-2.1,2.5-1.4l19.5,11.1c0.5,0.3,0.9,0.9,0.8,1.5    l-0.4,22C46.8,42.9,45.5,43.7,44.4,43.1z"></path></g><g class="st1"><path d="M18.6,36.7H35c1.6,0,2.7-1.5,2.2-3L27.1,3.5c-0.5-1.5,0.6-3,2.2-3h32.9c1,0,1.8,0.6,2.1,1.5l19.3,54.8    c0.5,1.5-0.6,3-2.1,3H58.6c-1.5,0-2.6,1.4-2.2,2.8l8.4,34c0.6,2.4-2.5,3.9-4,1.9l-44-58.2C15.6,38.9,16.7,36.7,18.6,36.7z"></path></g><g class="st1"><path d="M51.1,18.9L61.3,0.5L9.4,52.4c-2,2-0.2,5.4,2.6,4.8l39.6-8.5c9.4,0,16.9,7.6,16.9,16.9c0,9.4-7.6,16.9-16.9,16.9    c-4.3,0-19.5,0.8-34.4-14.2c-1.1-1.2-3.1-0.2-2.8,1.4c1.7,8.5,7.5,24.6,26.7,28.7c24.1,5.2,48.2-11.7,50.1-36.2    C93.1,38.6,74.4,18.9,51.1,18.9z M29.9,47.1c-1.9,0-3.7-0.7-5-1.8l0,0l11.2-11.2c0,0,0,0,0,0l0,0l0,0c1.1,1.4,1.8,3.1,1.8,5    C37.9,43.6,34.3,47.1,29.9,47.1z"></path></g></g><g><g><path d="M55.1,50.3c-1.7-1.3-4.1,0.5-3.4,2.5c0.6,1.7,1.9,3.4,4.4,4.8c7.2,3.9,16.8-1.7,17.2-10.3c0.3-8.6-6.6-24.8-28.1-18.2    s-21.1,41.2,6.6,49.4s57.9-19.4,39.8-56C74.1-12.8,1.1-7.1,3,50.2c1.7,51.7,56.6,57.6,84,41.2c1.4-0.9,0.5-3.1-1.1-2.7    c-7.9,1.7-21.1,3.6-34.1,1.1c-16.2-3-31.6-22.1-29.6-39.7S35.1,23.8,45,21.5c12.4-2.8,28,1.1,33.1,16.7    C83.2,53.6,67.5,71.3,52.8,63c-15-8.5-7.8-24.5,4.5-23.2s7.8,13.1,2.3,12.4C57.8,51.9,56.3,51.2,55.1,50.3z"></path></g></g></svg>