<svg fill="#FFFFFF" xmlns:dc="http://purl.org/dc/elements/1.1/" xmlns:cc="http://creativecommons.org/ns#" xmlns:rdf="http://www.w3.org/1999/02/22-rdf-syntax-ns#" xmlns:svg="http://www.w3.org/2000/svg" xmlns="http://www.w3.org/2000/svg" version="1.1" x="0px" y="0px" viewBox="0 0 100 100"><g transform="translate(0,-952.36218)"><path d="m 28.416388,983.57408 c -7.54613,0.0853 -16.48827,1.54712 -20.7631103,8.42898 -4.26174,6.86078 -3.0243,16.14854 1.12129,22.75434 3.5618803,5.6757 11.0904703,7.0998 17.4379203,6.1091 7.72952,-1.2064 15.95602,-3.6366 21.07243,-9.4923 2.511,-2.8738 4.35309,-2.073 6.68905,0.097 7.54046,7.0039 18.75667,11.1592 29.19209,8.6803 7.03747,-1.6717 11.72569,-8.7478 11.83149,-15.9493 0.11035,-7.51137 -3.50373,-15.55836 -10.92287,-18.26921 -8.67836,-3.17096 -18.16618,-2.74571 -26.98818,-1.00529 -4.39246,0.86655 -8.69528,1.15734 -13.04944,0.11599 -5.0869,-1.21659 -10.38452,-1.52843 -15.62067,-1.46927 z m 41.25558,13.20411 c 4.26064,-0.19248 7.81175,2.24213 11.5415,4.04051 -6.47292,3.7173 -11.59749,6.9225 -21.55574,1.1019 3.85152,-3.64297 7.09905,-5.01072 10.01424,-5.14241 z m -39.01301,0.54131 c 4.47623,-0.19411 8.87927,1.93619 12.6048,5.2198 -6.23444,3.3981 -14.23949,5.7265 -21.71041,-1.1793 2.94424,-2.67589 6.04294,-3.90769 9.10561,-4.0405 z" style="" fill="#FFFFFF" fill-opacity="1" stroke="none"></path></g></svg>